<svg width="502" height="214" viewBox="0 0 502 214" fill="none" xmlns="http://www.w3.org/2000/svg">
<g clip-path="url(#clip0_23_14)">
<path d="M109.14 177.86C118.67 186.24 129.84 188.6 142.06 190.1C140.96 197.98 139.91 205.49 138.78 213.53C119.06 211.9 101.24 207.09 87.42 192.64C84.25 189.32 81.37 188.29 76.64 188.75C42.54 192.08 10.86 173.16 2.06997 137.81C-6.33003 104.01 11.4 69.08 43.61 56.94C82.82 42.16 130.71 62.92 137.03 110.78C140.41 136.39 132.54 158.47 112.16 175.33C111.27 176.07 110.39 176.82 109.14 177.86ZM65.66 163.16C60.16 155.77 55.09 148.95 50 142.11C63.66 133.39 76.94 135.83 85.71 148.14C87.88 151.18 89.88 154.35 91.94 157.43C109.62 146.52 116.17 121.73 107.2 101.22C98.87 82.16 77.37 72.56 56.75 78.7C36.71 84.66 23.82 105.03 26.81 125.99C29.82 147.06 46.57 163.48 65.66 163.16Z" fill="#4C4D4D"/>
<path d="M231.49 55.2101C240.55 55.2101 248.82 55.2101 257.66 55.2101C257.66 57.3001 257.66 59.0901 257.66 60.8701C257.69 85.7001 257.9 110.53 257.64 135.36C257.57 141.94 257 148.81 254.99 155.01C249.32 172.54 236.03 181.3 218.38 184C206.73 185.78 195.1 185.46 183.77 181.89C165.64 176.19 154.28 161.37 153.83 140.81C153.22 112.66 153.62 84.4901 153.6 56.3301C153.6 56.0201 153.8 55.7001 154.02 55.0601C162.31 55.0601 170.71 55.0601 179.67 55.0601C179.67 57.1801 179.67 58.9701 179.67 60.7601C179.69 84.2601 179.71 107.75 179.73 131.25C179.73 131.92 179.75 132.58 179.73 133.25C178.92 161.37 199.2 164.41 217.62 159.63C226.34 157.37 231.48 148.29 231.51 136.99C231.57 111.66 231.51 86.3301 231.49 61.0001C231.49 59.2301 231.49 57.4301 231.49 55.2101Z" fill="#4C4D4D"/>
<path d="M423.06 55.3101C431.43 55.3101 439.81 55.3101 448.73 55.3101C448.73 90.0201 448.73 124.4 448.73 159.44C466.46 159.44 483.65 159.44 501.25 159.44C501.25 167.62 501.25 175.14 501.25 183.01C475.31 183.01 449.42 183.01 423.06 183.01C423.06 140.6 423.06 98.1201 423.06 55.3101Z" fill="#4C4D4D"/>
<path d="M328.71 182.98C328.71 140.29 328.71 98.0401 328.71 55.3601C337.24 55.3601 345.61 55.3601 354.61 55.3601C354.61 89.9301 354.61 124.46 354.61 159.68C372.43 159.68 389.66 159.68 407.09 159.68C407.09 167.79 407.09 175.2 407.09 182.98C380.94 182.98 355.07 182.98 328.71 182.98Z" fill="#4C4D4D"/>
<path d="M279.84 55.1599C288.39 55.1599 296.78 55.1599 305.53 55.1599C305.53 97.8299 305.53 140.2 305.53 182.94C297.04 182.94 288.65 182.94 279.84 182.94C279.84 140.59 279.84 98.2299 279.84 55.1599Z" fill="#4C4D4D"/>
<path d="M310.61 17.86C310.5 27.78 303.01 35.2 293.16 35.13C283.5 35.06 276.45 27.65 276.58 17.72C276.72 7.73002 284.63 -0.15998 294.35 0.0100205C303.68 0.17002 310.72 7.90002 310.61 17.86Z" fill="#D1582A"/>
</g>
<defs>
<clipPath id="clip0_23_14">
<rect width="501.25" height="213.52" fill="white"/>
</clipPath>
</defs>
</svg>
