<svg width="143" height="162" viewBox="0 0 143 162" fill="none" xmlns="http://www.w3.org/2000/svg">
<g clip-path="url(#clip0_23_23)">
<path d="M109.14 125.61C118.67 133.99 129.84 136.35 142.06 137.85C140.96 145.73 139.91 153.24 138.78 161.28C119.06 159.65 101.24 154.84 87.42 140.39C84.25 137.07 81.37 136.04 76.64 136.5C42.54 139.83 10.86 120.91 2.06997 85.56C-6.33003 51.76 11.4 16.83 43.61 4.68997C82.82 -10.09 130.71 10.67 137.03 58.53C140.41 84.14 132.54 106.22 112.16 123.08C111.27 123.82 110.39 124.56 109.14 125.61ZM65.66 110.91C60.16 103.52 55.09 96.7 50 89.86C63.66 81.14 76.94 83.58 85.71 95.89C87.88 98.93 89.88 102.1 91.94 105.18C109.62 94.27 116.17 69.48 107.2 48.97C98.87 29.91 77.37 20.32 56.75 26.45C36.72 32.4 23.82 52.77 26.81 73.73C29.82 94.81 46.57 111.22 65.66 110.91Z" fill="#4C4D4D"/>
</g>
<defs>
<clipPath id="clip0_23_23">
<rect width="142.06" height="161.27" fill="white"/>
</clipPath>
</defs>
</svg>
