<svg width="245" height="270" viewBox="0 0 245 270" fill="none" xmlns="http://www.w3.org/2000/svg">
<g clip-path="url(#clip0_19_12)">
<path d="M163.8 203.19C191.21 209.16 216.84 218.07 244.89 211.26C234.6 224.71 224.94 237.53 215.05 250.18C212.16 253.88 208.05 252.54 204.39 251.42C192.8 247.85 181.22 244.24 169.7 240.45C149.66 233.85 129.73 226.94 109.65 220.49C97.39 216.55 84.84 213.66 71.87 216.61C58.33 219.69 51.59 228.3 52.37 240.92C53.06 252.04 61.45 259.66 74.61 261.14C75.22 261.21 75.83 261.33 76.45 261.42C76.54 263.45 74.96 263.57 73.89 264.19C65.06 269.27 55.62 270.17 45.9 267.75C35.76 265.21 29.1 255 28.59 241.83C27.94 225 38.65 210.75 56.18 205.23C58.86 204.39 61.61 203.79 64.31 203.09C64.44 201.75 63.4 201.71 62.8 201.48C24.61 186.86 -2.88001 152.31 0.239993 100.55C3.19999 51.5501 36.2 13.2001 84.9 3.17009C114.66 -2.95991 143.66 -0.37991 171.23 12.4001C209.99 30.3701 232.23 72.1401 227.05 115.05C222.34 154.07 202.42 182.45 167.92 200.87C166.91 201.41 165.93 201.99 163.8 203.19ZM175.85 117.49C175.71 106.1 175.54 97.6201 174.52 89.1701C173.48 80.5601 171.91 72.0801 169.45 63.7701C164.78 48.0101 157.91 33.5401 144.02 23.7101C111.94 1.02009 67.2 16.6401 55.59 55.3901C45.65 88.5701 46.24 122.2 57.5 155.07C66.32 180.82 83.96 197.14 112 199.54C137.92 201.76 159.46 190.95 168.58 165.2C174.39 148.8 175.83 131.81 175.85 117.49Z" fill="#FAFAFA"/>
</g>
<defs>
<clipPath id="clip0_19_12">
<rect width="244.89" height="269.02" fill="white"/>
</clipPath>
</defs>
</svg>
