<svg width="730" height="284" viewBox="0 0 730 284" fill="none" xmlns="http://www.w3.org/2000/svg">
<g clip-path="url(#clip0_19_2)">
<path d="M163.8 218C191.21 223.97 216.84 232.88 244.89 226.07C234.6 239.52 224.94 252.34 215.05 264.99C212.16 268.69 208.05 267.35 204.39 266.23C192.8 262.66 181.22 259.05 169.7 255.26C149.66 248.66 129.73 241.75 109.65 235.3C97.39 231.36 84.84 228.47 71.87 231.42C58.33 234.5 51.59 243.11 52.37 255.73C53.06 266.85 61.45 274.47 74.61 275.95C75.22 276.02 75.83 276.14 76.45 276.23C76.54 278.26 74.96 278.38 73.89 279C65.06 284.08 55.62 284.98 45.9 282.56C35.74 280.03 29.09 269.82 28.58 256.65C27.93 239.82 38.64 225.57 56.17 220.05C58.85 219.21 61.6 218.61 64.3 217.91C64.43 216.57 63.39 216.53 62.79 216.3C24.61 201.67 -2.88001 167.13 0.239994 115.36C3.19999 66.3599 36.2 28.0099 84.9 17.9799C114.66 11.8499 143.66 14.4299 171.23 27.2099C209.99 45.1799 232.23 86.9499 227.05 129.86C222.34 168.88 202.42 197.26 167.92 215.68C166.91 216.22 165.93 216.8 163.8 218ZM175.85 132.3C175.71 120.91 175.54 112.43 174.52 103.98C173.48 95.3699 171.91 86.8899 169.45 78.5799C164.78 62.8199 157.91 48.3499 144.02 38.5199C111.94 15.8299 67.2 31.4499 55.59 70.1999C45.65 103.38 46.24 137.01 57.5 169.88C66.32 195.63 83.96 211.95 112 214.35C137.92 216.57 159.46 205.76 168.58 180.01C174.39 163.61 175.83 146.62 175.85 132.3Z" fill="#FAFAFA"/>
<path d="M372.6 85.0401C395.89 85.0401 417.92 85.0401 440.9 85.0401C438.82 86.8201 437.38 88.0501 435.93 89.2801C431.38 93.1601 428.86 97.9801 428.86 104.06C428.9 138.05 428.94 172.03 428.91 206.02C428.9 215.14 432.62 222.04 440.39 226.81C441.64 227.58 442.77 228.56 443.94 229.46C444.04 229.54 444.02 229.76 444.08 229.98C443.12 231.35 441.67 230.65 440.48 230.66C425.99 230.72 411.49 230.58 397 230.8C393.56 230.85 392.85 229.72 392.91 226.59C393.09 217.98 392.97 209.36 392.97 201.01C391.64 200.36 391.32 201.02 391 201.55C378.52 222.47 358.81 231.42 335.79 234.81C325.98 236.26 316.19 235.82 306.48 233.87C281.93 228.93 266.37 211.16 264.27 186.1C262.93 170.13 263.68 154.14 263.46 138.16C263.4 133.5 263.32 128.83 263.49 124.17C264.05 109.03 265.1 93.7501 247.4 86.6901C248.87 84.1301 250.36 84.9001 251.52 84.9001C267.51 84.8501 283.51 84.9901 299.5 84.7901C303.3 84.7401 304.46 85.5901 304.43 89.6101C304.23 115.93 304.35 142.26 304.3 168.58C304.29 173.27 304.65 177.93 305.62 182.48C308.92 198.07 320.18 207.45 337.16 208.85C343.66 209.39 350.14 209.14 356.52 207.55C375.99 202.7 386.53 190.08 388.32 169.12C390.04 149 388.85 128.83 388.97 108.69C389.02 101.2 385.76 95.2401 379.67 90.8101C377.54 89.2401 375.57 87.4701 372.6 85.0401Z" fill="#FAFAFA"/>
<path d="M594.05 230.38C571.83 230.38 549.65 230.38 526.61 230.38C528.76 228.47 530.49 226.88 532.28 225.37C537.98 220.55 540.49 214.53 540.47 206.97C540.36 155.69 540.32 104.4 540.57 53.1199C540.62 42.9199 536.93 35.8199 527.57 31.7399C526.99 31.4899 526.52 31.0199 525.34 30.1899C529.53 28.5799 533.38 28.4099 537.11 27.7199C550.02 25.3499 562.95 23.0799 575.79 20.3599C580 19.4699 580.75 20.5999 580.74 24.5099C580.65 71.2999 580.71 118.09 580.71 164.87C580.71 178.19 580.99 191.52 580.51 204.83C580.16 214.56 583.23 222.03 591.58 227.22C592.6 227.85 594.06 228.36 594.05 230.38Z" fill="#FAFAFA"/>
<path d="M599.68 28.5801C617.76 25.4201 635.85 22.2501 653.95 19.0901C654.83 20.6901 654.43 22.3901 654.43 24.0201C654.44 84.5101 654.58 144.99 654.25 205.48C654.2 215.41 657.52 222.51 665.74 227.62C666.69 228.21 667.58 228.88 669.57 230.26C646.02 230.26 623.74 230.26 601.13 230.26C601.88 228.24 603.83 227.44 605.28 226.33C611.55 221.52 614.35 215.38 614.32 207.36C614.15 157.71 614.06 108.05 614.32 58.4001C614.38 45.8601 613.69 34.3901 599.68 28.5801Z" fill="#FAFAFA"/>
<path d="M519.61 230.41C496.97 230.41 474.81 230.41 452.64 230.41C452.67 229.94 452.62 229.7 452.69 229.66C464.07 222.71 466.1 212.29 465.77 199.69C465.01 171.07 465.22 142.41 465.65 113.78C465.82 102.25 462.95 93.1401 452.1 87.7301C451.43 87.3901 450.94 86.6701 449.68 85.4801C456.79 84.6201 463.12 83.8601 469.44 83.0801C479.84 81.7901 490.25 80.5801 500.62 79.1101C504.29 78.5901 505.67 79.1001 505.64 83.4101C505.42 123.54 505.7 163.67 505.31 203.8C505.21 213.92 508.05 221.66 516.74 227.01C517.58 227.53 518.3 228.25 519.03 228.92C519.23 229.11 519.26 229.49 519.61 230.41Z" fill="#FAFAFA"/>
<path d="M483.15 53.86C468.19 53.87 456.45 42.24 456.4 27.37C456.35 11.99 468.23 -0.00999375 483.48 6.24542e-06C498.87 0.0100062 510.82 11.83 510.88 27.11C510.95 42.06 498.73 53.85 483.15 53.86Z" fill="#3D3A38"/>
<path d="M703.49 233.88C688.75 233.78 678.24 222.94 678.4 208.01C678.57 192.56 689.15 181.67 703.83 181.84C718.79 182.02 729.76 193.28 729.67 208.37C729.57 223.13 718.44 233.98 703.49 233.88Z" fill="#FAFAFA"/>
</g>
<defs>
<clipPath id="clip0_19_2">
<rect width="729.66" height="283.84" fill="white"/>
</clipPath>
</defs>
</svg>
